<svg id="Capa_1" enable-background="new 0 0 512 512" height="512" viewBox="0 0 512 512" width="512" xmlns="http://www.w3.org/2000/svg"><path d="m417.471 413.549s23.557 7.02 31.639-1.062 0-28.815 0-28.815l-42.646-8.431" fill="#f1d0a5"/><path d="m239.228 383.673s-8.082 20.733 0 28.815 31.639 1.062 31.639 1.062l27.189-44.293h-46.556z" fill="#f1b986"/><path d="m383.317 442.08-10 39.02-29.15 11.75-13.021-5.25-16.13-6.5-10-39.02 19.671-10.55 21.26-11.4z" fill="#f1d0a5"/><path d="m331.146 487.6-16.13-6.5-10-39.02 19.671-10.55z" fill="#f1b986"/><path d="m344.167 424.014h13.526v60.301h-13.526z" fill="#f1b986"/><path d="m504.007 252.53s-27.93 30.8-97.61 23.95h-124.45c-69.69 6.85-97.62-23.95-97.62-23.95 16.46-16.46 15.96-51.87 15.96-114.72s24.939-130.31 143.88-130.31 143.88 67.46 143.88 130.31-.5 98.26 15.96 114.72z" fill="#665e66"/><path d="m296.146 136.03v140.45h-14.2c-69.69 6.85-97.62-23.95-97.62-23.95 16.46-16.46 15.96-51.87 15.96-114.72s24.94-130.31 143.881-130.31c-55.091 0-48.021 72.88-48.021 128.53z" fill="#454045"/><path d="m417.047 383.67s2.44 27.77-1.57 58.41h-142.62c-4-30.64-1.56-58.41-1.56-58.41h-32.07c0-89.66 36.41-119.28 42.72-123.74h124.45c6.31 4.46 42.71 34.08 42.71 123.74z" fill="#da4a54"/><path d="m320.007 286.12c-22.62 38.58-19.29 114.39-14.99 155.96h-32.16c-4-30.64-1.56-58.41-1.56-58.41h-32.07c0-89.66 36.41-119.28 42.72-123.74h41.03c2.53 8.5 2.19 17.39-2.97 26.19z" fill="#c32430"/><ellipse cx="344.167" cy="263.539" fill="#f1b986" rx="50.876" ry="36.943"/><path d="m447.067 207.68c-1.51 29.69-25.27 53.33-54.98 54.73-23.37 1.1-46.74 1.4-70.12.89-.03 0-.07 0-.1-.01-8.54-.18-17.08-.48-25.62-.88-29.7-1.4-53.46-25.04-54.98-54.73-1.09-21.16-1.2-42.31-.36-63.47h.01s24.41-1.24 55.23-8.18c27.39-6.16 59.84-16.83 84.71-35.13 0 0 25.94 43.31 66.57 43.31.849 21.16.729 42.31-.36 63.47z" fill="#f1d0a5"/><path d="m321.867 263.29c-8.54-.18-17.08-.48-25.62-.88-29.7-1.4-53.46-25.04-54.98-54.73-1.09-21.16-1.2-42.31-.36-63.47h.01s24.41-1.24 55.23-8.18v.01c-6.881 59 .08 126.19 25.72 127.25z" fill="#f1b986"/><path d="m289.555 504.5h54.611v-23.402h-31.21c-12.924 0-23.401 10.478-23.401 23.402z" fill="#70c6da"/><path d="m327.876 481.095c-12.923 0-23.405 10.482-23.405 23.405h-14.916c0-12.923 10.472-23.405 23.395-23.405z" fill="#63afcb"/><path d="m398.778 504.5h-54.611v-23.402h31.21c12.924 0 23.401 10.478 23.401 23.402z" fill="#70c6da"/><ellipse cx="408.349" cy="192.677" fill="#eaac9d" rx="15.297" ry="9.644"/><ellipse cx="279.988" cy="192.677" fill="#eaac9d" rx="15.297" ry="9.644"/><path d="m60.985 413.549s-23.557 7.02-31.639-1.062 0-28.815 0-28.815l40.02-16.377z" fill="#f1d0a5"/><path d="m239.228 383.673s8.082 20.733 0 28.815-31.639 1.062-31.639 1.062l-10.326-43.142z" fill="#f1d0a5"/><path d="m207.158 383.668s4.972 56.675-10.93 97.427h-49.7s12.465-57.771-12.236-82.481c-24.71 24.71-12.246 82.481-12.246 82.481h-49.7c-15.902-40.752-10.93-97.427-10.93-97.427h-32.074c0-89.665 36.408-119.278 42.715-123.741h124.459c6.307 4.464 42.715 34.076 42.715 123.741z" fill="#b9e4ef"/><path d="m221.555 383.668h-14.398c0-21.871-7.951-43.084-7.951-43.084s19.938 7.025 22.349 43.084z" fill="#7ad0df"/><path d="m89.066 259.927c-14.816 19.997-41.808 64.646-41.101 123.741h-18.623c0-89.665 36.408-119.278 42.715-123.741z" fill="#7ad0df"/><path d="m196.217 481.095h-49.7s12.465-57.771-12.236-82.481c-24.7 24.71-12.236 82.481-12.236 82.481h-49.71c-15.902-40.752-10.93-97.427-10.93-97.427 0-5.61.528-11.189 1.305-16.371h143.141c.777 5.181 1.305 10.761 1.305 16.371.002 0 4.964 56.675-10.939 97.427z" fill="#665e66"/><path d="m87.053 481.095h-14.716c-15.902-40.752-10.93-97.427-10.93-97.427 0-5.61.528-11.189 1.305-16.371h23.585c-5.003 18.713-11.19 57.562.756 113.798z" fill="#454045"/><path d="m159.49 481.095h-12.973s12.465-57.771-12.236-82.481c25.209 0 38.173 43.403 25.209 82.481z" fill="#454045"/><path d="m150.3 290.137h-32.026l-5.669-38.456h43.364z" fill="#da4a54"/><path d="m237.88 189.315h.145c12.457 0 22.551-10.102 22.551-22.551 0-12.457-10.094-22.56-22.551-22.56-.162 0-.324 0-.486.009h-206.503c-.162-.009-.324-.009-.486-.009-12.457 0-22.551 10.102-22.551 22.56 0 12.449 10.094 22.551 22.551 22.551h.145" fill="#f1b986"/><path d="m248.015 146.542-153.172.656-76.061.32c-5.798-52.941-22.628-121.694 39.204-133.947 14.844-2.945 28.213-4.691 40.228-5.512 80.482-5.462 100.502 30.879 100.502 30.879s14.566-12.794 30.403-11.49c5.725.467 11.622 2.789 17.051 8.218 28.639 28.639 1.845 110.876 1.845 110.876z" fill="#e27d47"/><path d="m229.119 27.448c-18.814 12.926-31.125 51.604-36.825 73.65-5.577-22.456 1.238-47.175 6.422-62.159 0-.001 14.566-12.795 30.403-11.491z" fill="#dd542e"/><path d="m86.363 90.14 8.48 57.058-76.061.32c-5.798-52.941-22.628-121.694 39.204-133.947 14.844-2.945 28.213-4.691 40.228-5.512 0 .008-.008.008-.008.008-30.961 19.044-21.398 52.966-11.843 82.073z" fill="#dd542e"/><path d="m238.099 172.049c0 11.876-.303 23.76-.91 35.636-1.517 29.69-25.277 53.326-54.983 54.729-20.766.984-41.541 1.32-62.307 1.025h-.008c-11.179-.156-22.349-.5-33.528-1.025-29.698-1.402-53.458-25.039-54.983-54.729-1.083-21.16-1.197-42.312-.353-63.472h.008c11.581-4.289 18.47-17.625 22.562-32.453 4.199-15.214 18.773-23.53 32.765-21.619 5.454.746 10.826 3.051 15.452 7.103 9.292 8.136 20.881 12.204 32.47 12.204s23.186-4.068 32.478-12.204c5.757-5.044 12.655-7.373 19.446-7.373 12.671 0 24.965 8.119 28.771 21.89 4.084 14.828 10.974 28.164 22.562 32.453.378 9.283.558 18.559.558 27.835z" fill="#f1d0a5"/><path d="m119.891 263.438c-11.179-.156-22.349-.5-33.528-1.025-29.698-1.402-53.458-25.039-54.983-54.729-1.083-21.16-1.197-42.312-.353-63.472h.008c11.581-4.289 18.47-17.625 22.562-32.453 4.199-15.214 18.773-23.53 32.765-21.619-10.62 94.834.001 172.257 33.529 173.298z" fill="#f1b986"/><path d="m118.274 290.137h32.026l5.669 38.455-21.682 15.546-21.682-15.546z" fill="#da4a54"/><path d="m57.438 504.5h64.611v-23.402h-41.21c-12.924 0-23.401 10.478-23.401 23.402z" fill="#aa593d"/><path d="m95.759 481.095c-12.923 0-23.405 10.482-23.405 23.405h-14.916c0-12.923 10.472-23.405 23.395-23.405z" fill="#934d36"/><g fill="#aa593d"><path d="m211.136 504.5h-64.611v-23.402h41.21c12.924 0 23.401 10.478 23.401 23.402z"/><path d="m83.739 226.263h25.102c14.053 0 25.445-11.392 25.445-25.445v-9.805h-25.102c-14.053 0-25.445 11.392-25.445 25.445z"/><path d="m184.831 226.263h-25.102c-14.053 0-25.445-11.392-25.445-25.445v-9.805h25.102c14.053 0 25.445 11.392 25.445 25.445z"/></g><path d="m344.169 219.859c11.852 0 22.793-6.92 27.876-17.629 1.776-3.742.183-8.215-3.56-9.991-3.742-1.776-8.214-.182-9.991 3.56-2.613 5.504-8.236 9.061-14.326 9.061s-11.713-3.556-14.325-9.06c-1.776-3.742-6.25-5.337-9.991-3.56-3.742 1.776-5.336 6.249-3.561 9.991 5.084 10.708 16.026 17.628 27.878 17.628z"/><path d="m296.151 177.853c5.196 0 9.423-6.285 9.423-14.01s-4.227-14.01-9.423-14.01-9.423 6.285-9.423 14.01 4.227 14.01 9.423 14.01z"/><path d="m392.188 177.853c5.196 0 9.423-6.285 9.423-14.01s-4.227-14.01-9.423-14.01-9.423 6.285-9.423 14.01 4.227 14.01 9.423 14.01z"/><path d="m509.305 247.227c-13.785-13.785-13.777-47.748-13.764-104.016l.001-5.401c0-39.458-9.802-70.947-29.133-93.593-25.045-29.34-66.175-44.217-122.247-44.217-41.76 0-75.365 8.277-100.007 24.608-15.435-9.261-32.854-3.291-44.048 3.941-12.533-13.509-50.495-40.77-143.578-22.331-27.436 5.435-44.12 22.019-49.587 49.291-4.53 22.598-1.124 49.083 2.17 74.696.617 4.797 1.207 9.39 1.737 13.89-6.334 5.515-10.35 13.63-10.35 22.67 0 14.103 9.768 25.962 22.892 29.183.136 4.045.296 8.086.502 12.117 1.211 23.65 14.759 43.792 34.387 54.241-13.843 14.9-36.135 49.785-36.424 119.996-2.256 6.29-7.918 25.384 2.188 35.49 4.672 4.672 11.826 6.09 18.794 6.09 3.81 0 7.559-.426 10.819-.974.978 17.298 3.628 37.717 9.908 55.984-8.215 5.56-13.626 14.965-13.626 25.61 0 4.142 3.358 7.5 7.5 7.5h64.611c4.142 0 7.5-3.358 7.5-7.5v-23.402c0-.217-.109-1.297-.165-1.562-.001-.007-.002-.013-.003-.02-2.857-13.245-6.677-48.27 4.903-68.544 11.542 20.247 7.75 55.29 4.91 68.544-.001.007-.002.013-.003.02-.056.265-.165 1.344-.165 1.562v23.4c0 4.142 3.358 7.5 7.5 7.5h64.611c4.142 0 7.5-3.358 7.5-7.5 0-10.645-5.411-20.05-13.626-25.61 6.279-18.266 8.93-38.686 9.908-55.984 3.26.548 7.009.974 10.819.974 4.675 0 9.432-.645 13.469-2.477 3.566 1.639 7.982 2.47 13.235 2.47 2.024 0 4.172-.122 6.44-.367 1.633-.176 3.206-.405 4.68-.653.362 6.391.946 13.206 1.858 20.197.488 3.735 3.67 6.529 7.437 6.529h26.339l6.385 24.915c-13.488 3.317-23.526 15.508-23.526 30.005 0 4.142 3.358 7.5 7.5 7.5h109.222c4.142 0 7.5-3.358 7.5-7.5 0-14.497-10.037-26.689-23.526-30.005l6.385-24.915h26.339c3.766 0 6.948-2.793 7.437-6.527.913-6.974 1.498-13.773 1.862-20.151 3.266.55 7.025.978 10.845.978 6.967 0 14.123-1.419 18.794-6.09 10.111-10.112 4.437-29.222 2.184-35.501-.193-46.598-10.07-77.63-20.743-97.586 6.614-.352 13.016-1.057 19.129-2.125 4.081-.713 6.81-4.599 6.096-8.68-.713-4.08-4.6-6.809-8.679-6.096-8.092 1.415-16.772 2.139-25.853 2.165-2.237-2.993-4.389-5.533-6.369-7.663 19.631-10.45 33.176-30.591 34.379-54.238 1.096-21.288 1.219-42.873.364-64.157-.162-4.022-3.469-7.199-7.494-7.199-14.777 0-29.282-6.516-43.112-19.366-10.753-9.991-16.968-20.206-17.023-20.298-1.085-1.812-2.885-3.083-4.956-3.499-2.069-.417-4.221.06-5.923 1.312-36.233 26.661-90.448 36.605-117.334 40.041 2.11-8.356 4.595-19.728 6.193-32.097 3.974-30.754.698-53.465-9.722-67.668 21.875-13.364 51.627-20.134 88.611-20.134 91.77 0 136.38 40.172 136.38 122.81l-.001 5.397c-.013 55.679-.021 88.968 13.025 108.375-3.147 2.31-7.849 5.296-14.232 8.169-3.777 1.7-5.461 6.14-3.761 9.917 1.25 2.778 3.983 4.424 6.844 4.424 1.029 0 2.075-.213 3.074-.663 15.896-7.155 23.277-14.99 24.066-15.859 2.688-2.963 2.578-7.514-.252-10.343zm-493.807-80.463c0-5.644 3.123-10.566 7.726-13.144-.227 8.695-.289 17.428-.194 26.163-4.495-2.607-7.532-7.46-7.532-13.019zm23.374 40.534c-.988-19.356-1.16-38.938-.513-58.274 10.069-5.819 17.612-17.652 22.461-35.264 3.5-12.659 15.994-18.034 26.047-15.919 4.058.854 8.031-1.742 8.884-5.795s-1.742-8.031-5.795-8.884c-19.206-4.041-38.352 7.644-43.596 26.609-2.796 10.158-7.969 22.875-16.868 26.962-1.487.052-2.946.212-4.371.474-.363-2.915-.742-5.872-1.133-8.913-3.139-24.411-6.386-49.653-2.34-69.834 4.279-21.342 16.288-33.266 37.795-37.526 30.924-6.126 74.647-10.562 107.324 3.094 19.033 7.954 25.364 18.507 25.381 18.533 1.097 1.991 3.038 3.376 5.277 3.768 2.241.392 4.535-.254 6.242-1.754.057-.05 5.904-5.076 13.664-7.89 9.506-3.448 17.206-2.046 23.539 4.287 18.834 18.834 9.337 70.495 2.146 96.157-1.286-.216-2.599-.349-3.935-.396-8.895-4.086-14.075-16.805-16.879-26.966-4.452-16.129-19.255-27.395-36-27.395-8.934 0-17.594 3.278-24.38 9.226-7.628 6.677-17.409 10.354-27.541 10.354-5.834 0-11.488-1.183-16.805-3.517-3.793-1.665-8.218.06-9.882 3.853-1.665 3.793.06 8.217 3.853 9.882 7.229 3.173 14.912 4.782 22.834 4.782 13.767 0 27.056-4.996 37.424-14.07 4.112-3.605 9.125-5.51 14.497-5.51 8.471 0 18.417 5.066 21.54 16.385 4.862 17.617 12.408 29.449 22.471 35.267.258 7.732.389 15.469.389 23.058 0 11.74-.303 23.588-.9 35.216-1.327 25.926-21.899 46.399-47.854 47.622-31.557 1.492-63.564 1.492-95.133 0-25.948-1.225-46.516-21.698-47.843-47.622zm184.751 73.205c8.232 2.035 17.844 3.594 28.865 4.192-4.865 9.094-9.567 20.482-13.262 34.601-4.285-16.376-9.925-29.086-15.603-38.793zm-9.239 95.67c-1.411-20.016-7.847-37.403-8.153-38.219-1.455-3.879-5.779-5.842-9.656-4.389-3.878 1.454-5.844 5.778-4.389 9.656.043.116 2.562 6.919 4.663 16.576h-55.057v-11.81l18.548-13.298c2.282-1.636 3.459-4.411 3.05-7.189l-5.508-37.357 2.865-19.455c7.286-.188 14.56-.442 21.808-.784 4.221-.199 8.332-.791 12.298-1.739 4.182 3.608 11.58 11.289 18.718 25.124 11.215 21.74 17.284 49.596 18.069 82.886h-17.256zm-70.559-93.538h-19.074l-1.718-11.663c3.75.041 7.501.066 11.252.066 3.753 0 7.505-.025 11.257-.066zm-19.075 15.002h19.075l4.058 27.525-13.596 9.748-13.595-9.748zm137.055-27.685c-22.025-.067-38.339-4.287-49.464-8.784 11.866-6.878 21.319-17.374 26.888-30.035 5.885 13.382 16.11 24.344 28.934 31.172-1.977 2.126-4.126 4.661-6.358 7.647zm-16.252-90.174c.028-2.568.049-5.136.049-7.698 0-6.086-.09-12.266-.253-18.461 4.604 2.579 7.727 7.501 7.727 13.145 0 5.556-3.033 10.406-7.523 13.014zm-171.813 88.392c3.957.944 8.058 1.533 12.268 1.732 7.255.343 14.533.597 21.822.785l2.864 19.445-5.509 37.367c-.41 2.778.768 5.553 3.05 7.189l18.557 13.305v11.803h-55.058c2.1-9.645 4.612-16.463 4.654-16.576 1.455-3.878-.511-8.202-4.389-9.656-3.88-1.455-8.202.51-9.656 4.389-.306.817-6.742 18.204-8.153 38.219h-17.255c1.724-71.316 27.808-100.148 36.805-108.002zm-39.091 139.014c-2.101-2.101-1.643-9.294.148-16.011h18.648c-.186 4.243-.337 9.934-.279 16.579-8.87 1.756-16.611 1.338-18.517-.568zm79.9 89.816h-47.729c2.684-4.997 7.961-8.402 14.019-8.402h33.71zm39.476 0v-8.402h33.71c6.058 0 11.335 3.405 14.019 8.402zm1.384-23.402c2.563-18.213 5.425-59.039-15.819-80.283-1.406-1.406-3.314-2.197-5.303-2.197s-3.897.79-5.303 2.197c-21.244 21.244-18.381 62.07-15.818 80.283h-35.569c-12.961-38.19-8.518-95.888-8.243-98.802h129.869c.274 2.911 4.716 60.613-8.246 98.802zm59.999-65.845c.058-6.645-.093-12.337-.279-16.58h18.648c1.79 6.718 2.249 13.91.148 16.011-1.906 1.907-9.649 2.324-18.517.569zm34.068.983c1.465-5.801.85-12.26-.256-17.566h14.113c-.183 4.238-.328 9.937-.266 16.589-5.253 1.049-10.102 1.325-13.591.977zm87.191 64.862h-15.831l-6.156-24.018h21.986v24.018zm-23.71 15h23.71v8.402h-37.729c2.683-4.997 7.961-8.402 14.019-8.402zm76.438 8.402h-37.729v-8.402h23.709c6.059 0 11.337 3.405 14.02 8.402zm-21.898-23.402h-15.83v-24.018h21.986zm76.31-66.414c-1.907 1.908-9.659 2.325-18.533.565.063-6.648-.082-12.344-.264-16.579h18.649c1.791 6.718 2.25 13.913.148 16.014zm-27.456-125.762c.112.178.233.349.359.517 2.2 3.211 4.484 6.971 6.742 11.349 11.214 21.739 17.282 49.594 18.067 82.882h-17.253c-1.411-20.015-7.847-37.4-8.153-38.217-1.454-3.879-5.778-5.842-9.656-4.389-3.878 1.454-5.844 5.778-4.389 9.656.075.199 13.306 40.068 6.733 91.36h-129.268c-5.821-57.61 6.665-91.165 6.737-91.36 1.455-3.878-.511-8.202-4.389-9.656-3.879-1.455-8.202.51-9.656 4.389-.306.817-6.742 18.202-8.153 38.217h-17.257c1.724-71.334 27.814-100.153 36.81-108 .844.201 1.699.378 2.556.547 1.534 10.33 7.639 19.779 17.6 27.011 10.881 7.9 25.224 12.251 40.384 12.251s29.502-4.351 40.384-12.251c9.961-7.232 16.066-16.681 17.6-27.011.867-.171 1.731-.35 2.585-.555 2.788 2.404 7.002 6.62 11.617 13.26zm-114.397-11.27c14.025.578 28.117.885 42.217.885 14.096 0 28.189-.307 42.209-.885-4.559 12.899-22.036 22.828-42.213 22.828s-37.654-9.929-42.213-22.828zm76.99-158.786c3.285 4.426 8.295 10.54 14.835 16.663 14.387 13.471 30.29 21.42 46.392 23.264.561 18.621.362 37.427-.595 56.005-1.319 25.925-21.887 46.396-47.844 47.619-31.558 1.492-63.565 1.492-95.133 0-25.948-1.223-46.516-21.696-47.843-47.626-.208-4.013-.378-8.122-.515-12.267 11.556-4.19 19.836-15.276 19.836-28.261 0-6.387-2.008-12.31-5.416-17.185 29.208-3.789 78.885-13.569 116.283-38.212z"/><path d="m86.269 172.853c5.196 0 9.423-6.285 9.423-14.01s-4.227-14.01-9.423-14.01-9.423 6.285-9.423 14.01c-.001 7.725 4.227 14.01 9.423 14.01z"/><path d="m182.306 172.853c5.196 0 9.423-6.285 9.423-14.01s-4.227-14.01-9.423-14.01-9.423 6.285-9.423 14.01 4.227 14.01 9.423 14.01z"/><path d="m134.285 221.722c6.047 7.348 15.207 12.042 25.444 12.042h25.102c4.142 0 7.5-3.358 7.5-7.5v-9.805c0-18.166-14.779-32.945-32.944-32.945h-25.102-25.102c-18.166 0-32.945 14.779-32.945 32.945v9.805c0 4.142 3.358 7.5 7.5 7.5h25.102c10.237-.001 19.398-4.695 25.445-12.042zm43.046-5.263v2.305h-17.602c-9.895 0-17.944-8.05-17.944-17.945v-2.305h17.602c9.894 0 17.944 8.05 17.944 17.945zm-86.092 0c0-9.895 8.05-17.945 17.945-17.945h17.602v2.305c0 9.895-8.05 17.945-17.945 17.945h-17.602z"/></svg>