<?xml version="1.0"?>
<svg xmlns="http://www.w3.org/2000/svg" id="Capa_1" enable-background="new 0 0 501 501" height="512px" viewBox="0 0 501 501" width="512px" class=""><g><g><path d="m489.993 252.368c-.829 111.018-75.498 204.468-177.326 233.668 0-70.845-57.432-128.277-128.277-128.277h-159.725c-15.799-32.395-24.665-68.792-24.665-107.259 0-135.31 109.69-245 244.999-245 134.978 0 246.002 111.893 244.994 246.868z" fill="#003c79" data-original="#003C79" class="" data-old_color="#003c79" style="fill:#FFFFFF"/><path d="m489.993 252.368c-.039 5.246-.244 10.453-.608 15.616-28.124 79.814-104.199 137.016-193.635 137.016-4.099 0-8.169-.12-12.209-.357-23.526-28.626-59.207-46.884-99.151-46.884h-19.648c-45.357-37.649-74.242-94.456-74.242-158.009 0-89.436 57.202-165.511 137.017-193.635 5.775-.407 11.604-.615 17.482-.615 134.979 0 246.002 111.893 244.994 246.868z" fill="#00429a" data-original="#00429A" class="active-path" data-old_color="#00429a" style="fill:#FFFFFF"/><path d="m221.333 194.5c-10.309 0-18.667-8.357-18.667-18.667v-72.667c0-10.309 8.357-18.667 18.667-18.667 10.309 0 18.667 8.357 18.667 18.667v72.667c0 10.31-8.357 18.667-18.667 18.667z" fill="#f5f0eb" data-original="#F5F0EB"/><path d="m152.667 103.167v72.667c0 10.309-8.357 18.667-18.667 18.667s-18.667-8.357-18.667-18.667v-72.667c0-10.309 8.357-18.667 18.667-18.667s18.667 8.357 18.667 18.667z" fill="#0ab59e" data-original="#0AB59E"/><path d="m414 304.5v75c0 8.284-6.716 15-15 15h-120c-8.284 0-15-6.716-15-15s6.716-15 15-15h105v-60c0-8.284 6.716-15 15-15s15 6.716 15 15zm-261.333 80h50v-110h-50z" fill="#0573cd" data-original="#0573CD"/><path d="m351.667 369.5v20c0 8.284-6.716 15-15 15h-282.227c-11.599-14.334-21.613-30.004-29.776-46.741 2.562-2.04 5.806-3.259 9.335-3.259h302.667c8.285 0 15.001 6.716 15.001 15zm72.333 10c0 13.807-11.193 25-25 25s-25-11.193-25-25 11.193-25 25-25 25 11.193 25 25z" fill="#05a2f9" data-original="#05A2F9" class=""/><path d="m414 379.5c0 8.284-6.716 15-15 15s-15-6.716-15-15 6.716-15 15-15 15 6.716 15 15z" fill="#0573cd" data-original="#0573CD"/><path d="m277.667 294.5h-200c-8.284 0-15-6.716-15-15v-160c0-8.284 6.716-15 15-15h200c8.284 0 15 6.716 15 15v160c0 8.284-6.716 15-15 15zm35 45v146.536c-21.492 6.163-44.194 9.464-67.667 9.464-64.984 0-124.059-25.3-167.912-66.588-12.861-12.109-3.706-104.412 4.579-104.412h216c8.284 0 15 6.716 15 15zm116.379-42.631c-16.957 15.254-43.14 15.253-60.095-.002-13.109-11.795-17.598-29.294-13.466-44.994 2.434-9.25 13.947-12.416 20.71-5.653l.236.236c3.154 3.154 4.242 7.73 3.164 12.058-1.798 7.214.477 15.234 6.825 20.407 7.249 5.907 17.905 5.908 25.156.003 6.35-5.172 8.627-13.194 6.829-20.409-1.078-4.328.011-8.905 3.165-12.059l.235-.235c6.764-6.764 18.276-3.597 20.71 5.653 4.131 15.701-.358 33.201-13.469 44.995z" fill="#00f1a5" data-original="#00F1A5" class=""/><path d="m162.667 399.5c0 8.284 6.716 15 15 15s15-6.716 15-15-6.716-15-15-15c-8.285 0-15 6.716-15 15z" fill="#5affb7" data-original="#5AFFB7"/><path d="m212.667 399.5c0 8.284 6.716 15 15 15s15-6.716 15-15-6.716-15-15-15c-8.285 0-15 6.716-15 15z" fill="#fff5f5" data-original="#FFF5F5"/><path d="m101.667 294.5h-24c-8.284 0-15-6.716-15-15v-160c0-8.284 6.716-15 15-15h24zm-44 30h24v108.615c-14.709-13.165-27.819-28.081-39-44.421v-49.194c0-8.284 6.715-15 15-15zm71.333 20v-20h97.333v20c0 11.046-8.954 20-20 20h-57.333c-11.046 0-20-8.954-20-20zm-1.333 70c8.284 0 15-6.716 15-15s-6.716-15-15-15-15 6.716-15 15 6.715 15 15 15zm-44.44 20c8.213 7.226 16.913 13.912 26.046 20h203.394v-20z" fill="#2abbc7" data-original="#2ABBC7" class=""/><path d="m193.667 264.5h-32c-11.046 0-20-8.954-20-20v-15c0-2.761 2.239-5 5-5h62c2.761 0 5 2.239 5 5v15c0 11.046-8.955 20-20 20z" fill="#0573cd" data-original="#0573CD"/><path d="m193.667 264.5h-14.667c-11.046 0-20-8.954-20-20v-15c0-2.761 2.239-5 5-5h44.667c2.761 0 5 2.239 5 5v15c0 11.046-8.955 20-20 20z" fill="#0191f8" data-original="#0191F8"/><path d="m157.667 169.5c0 13.807-11.193 25-25 25s-25-11.193-25-25 11.193-25 25-25 25 11.193 25 25zm65-25c-13.807 0-25 11.193-25 25s11.193 25 25 25 25-11.193 25-25-11.193-25-25-25z" fill="#05a2f9" data-original="#05A2F9" class=""/><path d="m142.667 169.5c0 5.523-4.477 10-10 10s-10-4.477-10-10 4.477-10 10-10 10 4.477 10 10zm80-10c-5.523 0-10 4.477-10 10s4.477 10 10 10 10-4.477 10-10-4.477-10-10-10z" fill="#f5f0eb" data-original="#F5F0EB"/><path d="m501 54.5v123.767c0 5.523-4.477 10-10 10h-73.864l-33.46 33.46c-1.589 1.589-3.744 2.481-5.99 2.481-4.679 0-8.472-3.793-8.472-8.471v-27.47h-49.903c-5.523 0-10-4.477-10-10v-123.767c0-5.523 4.477-10 10-10h171.689c5.523 0 10 4.477 10 10z" fill="#fd2aa7" data-original="#FD2AA7" class=""/><path d="m333.272 188.267h-13.961c-5.523 0-10-4.477-10-10v-123.767c0-5.523 4.477-10 10-10h13.961z" fill="#d80d80" data-original="#D80D80"/><path d="m446.779 87.378c9.284 9.284 9.284 24.335 0 33.619l-36.754 36.754c-2.689 2.689-7.049 2.689-9.739 0l-36.754-36.754c-9.284-9.284-9.284-24.335 0-33.619 7.375-7.375 18.697-9.082 27.919-4.207l13.704 7.244 13.704-7.244c9.222-4.875 20.544-3.169 27.92 4.207z" fill="#f5f0eb" data-original="#F5F0EB"/><path d="m416.756 151.019-6.731 6.731c-2.689 2.689-7.049 2.689-9.739 0l-36.754-36.754c-9.284-9.284-9.284-24.335 0-33.619.573-.573 1.169-1.111 1.786-1.615-.741 7.839 1.889 15.936 7.892 21.938l42.303 42.303c.387.387.804.726 1.243 1.016z" fill="#fdade0" data-original="#FDADE0" class="" style="fill:#FDADE0"/></g></g> </svg>
