<?xml version="1.0"?>
<svg xmlns="http://www.w3.org/2000/svg" xmlns:xlink="http://www.w3.org/1999/xlink" version="1.1" id="Capa_1" x="0px" y="0px" viewBox="0 0 512 512" style="enable-background:new 0 0 512 512;" xml:space="preserve" width="512px" height="512px" class=""><g><g>
	<g>
		<g>
			<g>
				<circle style="fill:#FFFFFF" cx="256" cy="256" r="256" data-original="#FFCE00" class="" data-old_color="#FFCE00"/>
			</g>
		</g>
	</g>
	<path style="fill:#FFFFFF" d="M512,256c0-6.894-0.281-13.722-0.816-20.479L343.152,67.489l-42.154,99.212l87.188,87.188   l-12.939,12.939L239.531,131.112L103.805,265.007l104.327,104.327l-2.25,4.305l-85.97-85.97l10.022,81.885l51.284,51.284   l-12.37,23.673l66.673,66.673C242.278,511.719,249.106,512,256,512C397.385,512,512,397.385,512,256z" data-original="#FFA300" class="" data-old_color="#FFA300"/>
	<g>
		<g>
			<g>
				<circle style="fill:#FE6A16;" cx="169.215" cy="195.83" r="95.57" data-original="#FE6A16" class=""/>
			</g>
			<g>
				<path style="fill:#FF432E;" d="M169.215,100.26c-0.175,0-0.349,0.006-0.524,0.007v191.127c0.175,0.001,0.349,0.007,0.524,0.007      c52.782,0,95.57-42.788,95.57-95.57C264.785,143.048,221.997,100.26,169.215,100.26z" data-original="#FF432E" class=""/>
			</g>
			<g>
				<g>
					<circle style="fill:#E7E9EC" cx="169.215" cy="176.61" r="41.071" data-original="#FFFFFF" class="" data-old_color="#FFFFFF"/>
				</g>
				<g>
					<path style="fill:#CFD2D9" d="M169.215,135.54c-0.176,0-0.349,0.011-0.524,0.013v82.115c0.175,0.002,0.348,0.013,0.524,0.013       c22.683,0,41.071-18.388,41.071-41.071C210.286,153.927,191.898,135.54,169.215,135.54z" data-original="#E9EDF5" class="active-path" data-old_color="#E9EDF5"/>
				</g>
				<g>
					<path style="fill:#E7E9EC" d="M169.215,291.4c25.406,0,48.448-10.061,65.41-26.394c-10.337-26.01-35.717-44.407-65.41-44.407       s-55.072,18.397-65.41,44.407C120.767,281.339,143.809,291.4,169.215,291.4z" data-original="#FFFFFF" class="" data-old_color="#FFFFFF"/>
				</g>
				<g>
					<path style="fill:#CFD2D9" d="M234.624,265.007c-10.337-26.01-35.717-44.407-65.41-44.407c-0.176,0-0.349,0.009-0.524,0.01       v70.784c0.175,0.001,0.349,0.006,0.524,0.006C194.621,291.4,217.663,281.339,234.624,265.007z" data-original="#E9EDF5" class="active-path" data-old_color="#E9EDF5"/>
				</g>
			</g>
		</g>
		<g>
			<g>
				<circle style="fill:#2864F0;" cx="342.785" cy="316.17" r="95.57" data-original="#2864F0" class=""/>
			</g>
			<g>
				<path style="fill:#27488F" d="M342.785,220.6c-0.294,0-0.587,0.008-0.88,0.011v191.118c0.294,0.003,0.586,0.011,0.88,0.011      c52.782,0,95.57-42.788,95.57-95.57C438.356,263.388,395.567,220.6,342.785,220.6z" data-original="#27488F" class=""/>
			</g>
			<g>
				<g>
					<circle style="fill:#E7E9EC" cx="342.785" cy="296.95" r="41.071" data-original="#FFFFFF" class="" data-old_color="#FFFFFF"/>
				</g>
				<g>
					<path style="fill:#CFD2D9" d="M342.785,255.879c-0.295,0-0.587,0.016-0.88,0.022v82.097c0.294,0.006,0.585,0.022,0.88,0.022       c22.683,0,41.071-18.388,41.071-41.071S365.468,255.879,342.785,255.879z" data-original="#E9EDF5" class="active-path" data-old_color="#E9EDF5"/>
				</g>
				<g>
					<path style="fill:#E7E9EC" d="M342.785,411.74c25.406,0,48.448-10.061,65.41-26.394c-10.337-26.01-35.717-44.407-65.41-44.407       s-55.072,18.397-65.41,44.407C294.337,401.679,317.379,411.74,342.785,411.74z" data-original="#FFFFFF" class="" data-old_color="#FFFFFF"/>
				</g>
				<g>
					<path style="fill:#CFD2D9" d="M408.195,385.347c-10.337-26.01-35.717-44.407-65.409-44.407c-0.295,0-0.586,0.013-0.88,0.017       v70.773c0.294,0.002,0.586,0.011,0.88,0.011C368.191,411.74,391.233,401.679,408.195,385.347z" data-original="#E9EDF5" class="active-path" data-old_color="#E9EDF5"/>
				</g>
			</g>
		</g>
	</g>
	<path style="fill:#CFD2D9" d="M383.034,143.495c-14.351-16.193-31.735-29.512-50.958-39.183l22.304-9.003l-11.229-27.819   l-70.683,28.529l28.528,70.683l27.819-11.229l-9.737-24.125c15.642,7.943,29.794,18.832,41.502,32.044   c15.401,17.378,26.295,38.45,31.506,60.939l29.226-6.771C414.978,190.214,401.741,164.603,383.034,143.495z" data-original="#E9EDF5" class="active-path" data-old_color="#E9EDF5"/>
	<path style="fill:#E7E9EC" d="M211.002,345.298l-27.819,11.229l9.743,24.14c-36.491-18.505-63.633-52.51-73.014-92.998   l-29.226,6.771c11.441,49.384,44.622,90.835,89.211,113.259l-22.278,8.992l11.229,27.819l70.683-28.529L211.002,345.298z" data-original="#FFFFFF" class="" data-old_color="#FFFFFF"/>
</g></g> </svg>
