<?xml version="1.0"?>
<svg xmlns="http://www.w3.org/2000/svg" height="512px" viewBox="0 0 512 512" width="512px" class=""><g><path d="m512 256c0 141.386719-114.613281 256-256 256s-256-114.613281-256-256 114.613281-256 256-256 256 114.613281 256 256zm0 0" fill="#ffda2d" data-original="#FFDA2D" class="active-path" data-old_color="#ffda2d" style="fill:#FFFFFF"/><path d="m512 256c0-2.457031-.042969-4.902344-.109375-7.339844l-141.261719-141.261718-2.417968 99.132812-99.101563-99.101562-48.082031 48.085937 28.785156 28.785156-69.972656 69.972657 45.402344 45.40625-101.34375 101.34375 110.015624 110.015624c7.28125.625 14.644532.960938 22.085938.960938 141.386719 0 256-114.613281 256-256zm0 0" fill="#fdbf00" data-original="#FDBF00" class="" data-old_color="#fdbf00" style="fill:#FFFFFF"/><path d="m324.984375 318.125v82.875h-36.5625l-9.140625-18.28125-9.140625 18.28125h-91.40625l-9.140625-18.28125-9.140625 18.28125h-36.5625v-82.875c0-25.226562 20.472656-45.703125 45.703125-45.703125h36.5625l18.28125 18.28125 18.28125-18.28125h36.5625c25.226562 0 45.703125 20.476563 45.703125 45.703125zm0 0" fill="#4bb9ec" data-original="#4BB9EC"/><path d="m324.984375 318.125v82.875h-36.5625l-9.140625-18.28125-9.140625 18.28125h-45.703125v-110.296875l18.28125-18.28125h36.5625c25.226562 0 45.703125 20.476563 45.703125 45.703125zm0 0" fill="#0095ff" data-original="#0095FF" class=""/><path d="m242.71875 254.140625v36.5625c0 10.054687-8.226562 18.28125-18.28125 18.28125s-18.28125-8.226563-18.28125-18.28125v-36.5625zm0 0" fill="#ffb99c" data-original="#FFB99C"/><path d="m224.4375 254.140625h18.28125v36.5625c0 10.054687-8.226562 18.28125-18.28125 18.28125zm0 0" fill="#ff9468" data-original="#FF9468"/><path d="m288.421875 162.125v46.3125c0 35.285156-28.703125 63.984375-63.984375 63.984375s-63.984375-28.703125-63.984375-63.984375v-46.3125l27.421875-18.28125c7.132812 0 13.347656-2.742188 18.28125-7.128906 4.9375 4.386718 11.152344 7.128906 18.28125 7.128906zm0 0" fill="#ffcebf" data-original="#FFCEBF" class=""/><path d="m288.421875 162.125v46.3125c0 35.285156-28.703125 63.984375-63.984375 63.984375v-128.578125zm0 0" fill="#ffb99c" data-original="#FFB99C"/><path d="m288.421875 152.984375v9.140625h-63.984375c-7.128906 0-13.34375-2.742188-18.28125-7.128906-4.933594 4.386718-11.148438 7.128906-18.28125 7.128906h-27.421875v-9.140625c0-34.1875 28.152344-63.984375 63.984375-63.984375 36.011719 0 63.984375 29.980469 63.984375 63.984375zm0 0" fill="#61729b" data-original="#61729B"/><path d="m160.453125 345.546875h18.28125v55.453125h-18.28125zm0 0" fill="#0095ff" data-original="#0095FF" class=""/><path d="m270.140625 345.546875h18.28125v55.453125h-18.28125zm0 0" fill="#006eff" data-original="#006EFF"/><path d="m288.421875 152.984375v9.140625h-63.984375v-73.125c36.011719 0 63.984375 29.980469 63.984375 63.984375zm0 0" fill="#47568c" data-original="#47568C"/><path d="m251.859375 208.4375c0 15.171875-12.25 27.421875-27.421875 27.421875-15.175781 0-27.421875-12.25-27.421875-27.421875h18.28125c0 5.117188 4.019531 9.140625 9.140625 9.140625 5.117188 0 9.140625-4.019531 9.140625-9.140625zm0 0" fill="#ffb99c" data-original="#FFB99C"/><path d="m233.578125 208.4375h18.28125c0 15.171875-12.25 27.421875-27.421875 27.421875v-18.28125c5.121094 0 9.140625-4.023437 9.140625-9.140625zm0 0" fill="#ff9468" data-original="#FF9468"/><path d="m398.109375 401v-37.171875l-25.960937-18.28125-1.460938.914063-27.421875 17.367187v37.171875zm0 0" fill="#f2f2fc" data-original="#F2F2FC"/><path d="m398.109375 401v-37.171875l-25.960937-18.28125-1.460938.914063v54.539062zm0 0" fill="#d8d8fc" data-original="#D8D8FC"/><path d="m398.109375 363.828125v-36.5625l-25.960937-18.28125-1.460938.914063-27.421875 17.367187v36.5625zm0 0" fill="#61729b" data-original="#61729B"/><path d="m398.109375 363.828125v-36.5625l-25.960937-18.28125-1.460938.914063v53.929687zm0 0" fill="#47568c" data-original="#47568C"/><path d="m398.109375 327.265625v-146.859375l-27.421875-18.28125-27.421875 18.28125v146.859375zm0 0" fill="#ff641a" data-original="#FF641A" class=""/><path d="m370.6875 327.265625h27.421875v-146.859375l-27.421875-18.28125zm0 0" fill="#f03800" data-original="#F03800" class=""/><path d="m398.109375 180.40625-27.421875-73.125-27.421875 73.125zm0 0" fill="#ffcebf" data-original="#FFCEBF" class=""/><path d="m370.6875 180.40625h27.421875l-27.421875-73.125zm0 0" fill="#ffb99c" data-original="#FFB99C"/></g> </svg>
