<?xml version="1.0"?>
<svg xmlns="http://www.w3.org/2000/svg" id="Capa_1" enable-background="new 0 0 501 501" height="512px" viewBox="0 0 501 501" width="512px" class=""><g><g><path d="m490 256c0 135.31-109.69 245-245 245s-245-109.69-245-245 109.69-245 245-245 245 109.69 245 245z" fill="#0ed1b2" data-original="#0ED1B2" class="active-path" data-old_color="#0ed1b2" style="fill:#FFFFFF"/><path d="m285.487 18.522 15.035 8.223c2.635 1.441 2.635 5.226 0 6.668l-15.035 8.223c-.638.349-1.162.873-1.51 1.51l-8.223 15.035c-1.441 2.635-5.226 2.635-6.668 0l-8.223-15.035c-.349-.638-.873-1.162-1.51-1.51l-15.035-8.223c-2.635-1.441-2.635-5.226 0-6.668l15.035-8.223c.638-.349 1.162-.873 1.51-1.51l8.223-15.035c1.441-2.635 5.226-2.635 6.668 0l8.223 15.035c.349.637.873 1.162 1.51 1.51z" fill="#0995a3" data-original="#0995A3" class=""/><path d="m137.323 271.935h-60.968c-11.046 0-20-8.954-20-20v-43.225c0-11.046 8.954-20 20-20h60.968c11.046 0 20 8.954 20 20v43.226c0 11.045-8.955 19.999-20 19.999z" fill="#0573cd" data-original="#0573CD" class=""/><path d="m137.323 271.935h-23.105c-11.046 0-20-8.954-20-20v-43.225c0-11.046 8.954-20 20-20h23.105c11.046 0 20 8.954 20 20v43.226c0 11.045-8.955 19.999-20 19.999z" fill="#528ed7" data-original="#528ED7"/><path d="m374.516 234.419h-145.516c-16.569 0-30-13.431-30-30v-60c0-16.569 13.431-30 30-30h145.516c16.569 0 30 13.431 30 30v60c0 16.568-13.431 30-30 30z" fill="#002c5d" data-original="#002C5D" class=""/><path d="m352.968 404.806h-103.968c-11.046 0-20-8.954-20-20v-223.548c0-11.046 8.954-20 20-20h103.968c11.046 0 20 8.954 20 20v223.548c0 11.046-8.955 20-20 20z" fill="#05a2f9" data-original="#05A2F9"/><path d="m352.968 404.806h-63.968c-11.046 0-20-8.954-20-20v-223.548c0-11.046 8.954-20 20-20h63.968c11.046 0 20 8.954 20 20v223.548c0 11.046-8.955 20-20 20z" fill="#63bcfa" data-original="#63BCFA" class=""/><path d="m422.061 115.878 12.458 38.398 39.259-9.396c3.529-.845 6.269 3.068 4.268 6.095l-22.253 33.681 42.818 18.87c3.623 1.597 2.973 6.923-.928 7.601l-52.377 9.104.531 50.497-34.883-36.516-39.149 31.9 6.8-50.04-49.35-10.719 43.363-25.883-17.897-36.184c-1.609-3.252 1.596-6.794 4.993-5.518l37.788 14.201 17.132-36.553c1.54-3.287 6.308-2.99 7.427.462z" fill="#fdf385" data-original="#FDF385" class=""/><path d="m101.258 437.525c0 7.006-8.185 10.82-13.554 6.319-23.333-19.559-42.968-43.384-57.704-70.275v-137.117c0-11.046 8.954-20 20-20h71.258c-11.046 0-20 8.954-20 20z" fill="#002c5d" data-original="#002C5D" class=""/><path d="m460 373.569c-41.615 75.941-122.295 127.431-215 127.431-61.583 0-117.859-22.721-160.903-60.238v-204.31c0-11.046 8.954-20 20-20h335.903c11.046 0 20 8.954 20 20z" fill="#003c79" data-original="#003C79" class=""/><path d="m179 492.007v-289.137c0-11.046 8.954-20 20-20h200c11.046 0 20 8.954 20 20v225.608c-44.395 44.785-105.958 72.522-174 72.522-22.867 0-45.002-3.133-66-8.993z" fill="#0266eb" data-original="#0266EB" class=""/><path d="m87.387 256.129c0 7.661-6.21 13.871-13.871 13.871s-13.871-6.21-13.871-13.871 6.21-13.871 13.871-13.871 13.871 6.21 13.871 13.871z" fill="#fdf385" data-original="#FDF385" class=""/><path d="m129 256.129c0 7.661-6.21 13.871-13.871 13.871s-13.871-6.21-13.871-13.871 6.21-13.871 13.871-13.871 13.871 6.21 13.871 13.871z" fill="#0266eb" data-original="#0266EB" class=""/><path d="m403.032 345.968c0 57.455-46.577 104.032-104.032 104.032s-104.032-46.577-104.032-104.032 46.577-104.033 104.032-104.033 104.032 46.577 104.032 104.033z" fill="#002c5d" data-original="#002C5D" class=""/><path d="m299 269.677c-42.134 0-76.29 34.156-76.29 76.29s34.156 76.29 76.29 76.29 76.29-34.156 76.29-76.29-34.156-76.29-76.29-76.29zm0 124.839c-26.813 0-48.548-21.736-48.548-48.548s21.736-48.548 48.548-48.548c26.813 0 48.548 21.736 48.548 48.548s-21.735 48.548-48.548 48.548z" fill="#e3f0fb" data-original="#E3F0FB" class=""/><path d="m355.29 345.968c0 31.088-25.202 56.29-56.29 56.29s-56.29-25.202-56.29-56.29 25.202-56.29 56.29-56.29c31.088-.001 56.29 25.201 56.29 56.29z" fill="#0995a3" data-original="#0995A3" class=""/><path d="m355.29 345.968c0 9.592-2.406 18.62-6.637 26.524-7.904 4.231-16.932 6.637-26.524 6.637-31.088 0-56.29-25.202-56.29-56.29 0-9.592 2.406-18.62 6.637-26.524 7.904-4.231 16.932-6.637 26.524-6.637 31.088-.001 56.29 25.201 56.29 56.29z" fill="#2abbc7" data-original="#2ABBC7" class=""/><path d="m305.032 315.742c11.046 0 20 8.954 20 20s-8.954 20-20 20-20-8.954-20-20 8.955-20 20-20z" fill="#bbe0fb" data-original="#BBE0FB" class=""/><path d="m185.775 75.213 19.784 10.82c3.468 1.897 3.468 6.877 0 8.774l-19.784 10.82c-.839.459-1.529 1.149-1.988 1.988l-10.82 19.784c-1.897 3.468-6.877 3.468-8.774 0l-10.82-19.784c-.459-.839-1.149-1.529-1.988-1.988l-19.784-10.82c-3.468-1.897-3.468-6.877 0-8.774l19.784-10.82c.839-.459 1.529-1.149 1.988-1.988l10.82-19.784c1.897-3.468 6.877-3.468 8.774 0l10.82 19.784c.459.839 1.149 1.529 1.988 1.988z" fill="#fff5f5" data-original="#FFF5F5" class="" data-old_color="#fff5f5" style="fill:#FFFFFF"/></g></g> </svg>
