<?xml version="1.0"?>
<svg xmlns="http://www.w3.org/2000/svg" xmlns:xlink="http://www.w3.org/1999/xlink" version="1.1" id="Capa_1" x="0px" y="0px" viewBox="0 0 436.909 436.909" style="enable-background:new 0 0 436.909 436.909;" xml:space="preserve" width="512px" height="512px" class=""><g><ellipse style="fill:#FFFFFF" cx="218.455" cy="218.455" rx="218.454" ry="218.454" data-original="#45B39C" class="" data-old_color="#45B39C"/><g style="opacity:0.1;">
	<path d="M218.34,133.49l-0.196-0.245l-0.195,0.249l-89.734,0.748L90.23,192.088l0.873,104.645l0.067,7.994l134.22,132   c104.825-3.291,190.73-80.252,208.205-180.542l-125.52-123.444L218.34,133.49z" data-original="#000000" class="active-path" data-old_color="#000000" style="fill:#FFFFFF"/>
</g><polyline style="fill:#D15241;" points="90.229,192.088 128.215,134.241 308.075,132.741 346.22,189.953 " data-original="#D15241" class=""/><g>
	
		<rect x="255.525" y="190.331" transform="matrix(-1 0.0083 -0.0083 -1 604.209 482.7931)" style="fill:#F6C358;" width="91.147" height="104.65" data-original="#F6C358" class=""/>
	
		<rect x="90.667" y="191.693" transform="matrix(-1 0.0083 -0.0083 -1 274.5102 486.8904)" style="fill:#F6C358;" width="91.147" height="104.65" data-original="#F6C358" class=""/>
</g><rect x="173.087" y="191.019" transform="matrix(-1 0.0083 -0.0083 -1 439.3427 484.8556)" style="fill:#FCD462;" width="91.147" height="104.65" data-original="#FCD462"/><polyline style="fill:#E56353;" points="172.653,191.401 218.143,133.244 263.979,190.639 " data-original="#E56353"/><polyline style="fill:#FCD462;" points="180.829,193.011 218.098,145.366 255.649,192.387 " data-original="#FCD462"/><g>
	
		<rect x="196.918" y="252.792" transform="matrix(-1 0.0083 -0.0083 -1 416.8286 546.813)" style="fill:#27A2DB;" width="20.712" height="42.967" data-original="#27A2DB"/>
	
		<rect x="218.693" y="252.624" transform="matrix(-1 0.0083 -0.0083 -1 460.3763 546.2955)" style="fill:#27A2DB;" width="20.712" height="42.967" data-original="#27A2DB"/>
</g><g>
	<path style="fill:#2F4859;" d="M183.631,195.732c-0.277,0.231-0.414,0.536-0.411,0.914c0.003,0.379,0.176,0.678,0.518,0.897   c0.343,0.221,1.132,0.477,2.368,0.771c1.236,0.293,2.197,0.741,2.884,1.342c0.686,0.602,1.035,1.485,1.045,2.651   c0.01,1.165-0.419,2.113-1.287,2.846c-0.868,0.732-2.015,1.105-3.44,1.117c-2.057,0.017-3.917-0.73-5.578-2.24l1.712-2.134   c1.411,1.215,2.711,1.818,3.901,1.808c0.533-0.004,0.95-0.123,1.252-0.354c0.301-0.232,0.451-0.543,0.448-0.934   c-0.003-0.39-0.167-0.698-0.492-0.925c-0.324-0.226-0.964-0.454-1.92-0.681c-1.516-0.346-2.626-0.805-3.33-1.375   c-0.705-0.571-1.063-1.473-1.073-2.706c-0.01-1.234,0.425-2.188,1.306-2.865c0.88-0.677,1.984-1.02,3.31-1.032   c0.867-0.007,1.736,0.135,2.606,0.424c0.87,0.29,1.629,0.705,2.278,1.246l-1.451,2.132c-1.136-0.846-2.304-1.265-3.506-1.255   C184.288,195.381,183.908,195.499,183.631,195.732z" data-original="#2F4859" class=""/>
	<path style="fill:#2F4859;" d="M198.485,203.444c1.425-0.012,2.586-0.586,3.481-1.721l1.875,1.898   c-1.462,1.674-3.193,2.519-5.194,2.536c-2.002,0.017-3.655-0.602-4.961-1.856c-1.306-1.253-1.967-2.843-1.983-4.771   c-0.016-1.927,0.631-3.541,1.94-4.841c1.309-1.3,2.918-1.958,4.827-1.974c2.132-0.018,3.923,0.78,5.374,2.391l-1.786,2.06   c-0.927-1.132-2.071-1.694-3.435-1.682c-1.091,0.009-2.02,0.373-2.789,1.092c-0.769,0.72-1.148,1.683-1.138,2.891   c0.01,1.208,0.384,2.176,1.121,2.9C196.554,203.095,197.444,203.453,198.485,203.444z" data-original="#2F4859" class=""/>
	<path style="fill:#2F4859;" d="M214.107,192.883l2.9-0.024l0.108,12.996l-2.9,0.024l-0.043-5.113l-5.168,0.043l0.043,5.113   l-2.9,0.024l-0.108-12.995l2.9-0.024l0.045,5.429l5.168-0.043L214.107,192.883z" data-original="#2F4859" class=""/>
	<path style="fill:#2F4859;" d="M231.23,203.943c-1.303,1.294-2.915,1.948-4.836,1.964c-1.921,0.016-3.544-0.611-4.869-1.883   c-1.324-1.272-1.994-2.862-2.01-4.771c-0.016-1.909,0.628-3.511,1.93-4.805c1.303-1.294,2.915-1.948,4.837-1.964   c1.921-0.016,3.544,0.611,4.868,1.883c1.324,1.272,1.995,2.863,2.011,4.772C233.177,201.048,232.533,202.649,231.23,203.943z    M230.205,199.173c-0.01-1.158-0.39-2.144-1.14-2.955c-0.75-0.812-1.668-1.214-2.752-1.205c-1.085,0.009-1.995,0.425-2.732,1.25   c-0.737,0.824-1.101,1.816-1.091,2.974c0.01,1.159,0.39,2.142,1.14,2.947c0.75,0.806,1.668,1.204,2.752,1.195   c1.085-0.009,1.995-0.422,2.732-1.241C229.851,201.321,230.215,200.332,230.205,199.173z" data-original="#2F4859" class=""/>
	<path style="fill:#2F4859;" d="M246.586,203.815c-1.303,1.294-2.915,1.948-4.836,1.964c-1.921,0.016-3.544-0.611-4.869-1.883   c-1.324-1.272-1.994-2.862-2.01-4.771c-0.016-1.909,0.628-3.511,1.93-4.805c1.303-1.294,2.915-1.948,4.837-1.964   c1.921-0.016,3.544,0.611,4.868,1.883c1.324,1.272,1.995,2.863,2.011,4.772C248.533,200.92,247.889,202.521,246.586,203.815z    M245.561,199.045c-0.01-1.158-0.39-2.144-1.14-2.955c-0.75-0.812-1.668-1.214-2.752-1.204c-1.085,0.009-1.995,0.425-2.732,1.25   c-0.737,0.824-1.101,1.816-1.091,2.974c0.01,1.159,0.39,2.142,1.14,2.947c0.75,0.806,1.668,1.204,2.752,1.195   c1.085-0.009,1.995-0.422,2.732-1.241C245.207,201.193,245.571,200.204,245.561,199.045z" data-original="#2F4859" class=""/>
	<path style="fill:#2F4859;" d="M251.026,205.572l-0.108-12.996l2.9-0.024l0.087,10.411l5.54-0.046l0.022,2.585L251.026,205.572z" data-original="#2F4859" class=""/>
</g><rect x="312.321" y="204.937" transform="matrix(-1 0.0083 -0.0083 -1 654.0552 430.7678)" style="fill:#3A556A;" width="27.617" height="23.62" data-original="#3A556A" class=""/><polygon style="fill:#64798A" points="312.415,228.679 312.218,205.061 339.832,204.831 " data-original="#64798A" class="" data-old_color="#64798A"/><rect x="276.891" y="205.247" transform="matrix(-1 0.0083 -0.0083 -1 583.1987 431.6815)" style="fill:#3A556A;" width="27.617" height="23.62" data-original="#3A556A" class=""/><polygon style="fill:#64798A" points="276.988,228.975 276.791,205.357 304.406,205.126 " data-original="#64798A" class="" data-old_color="#64798A"/><rect x="225.204" y="213.06" transform="matrix(-1 0.0083 -0.0083 -1 479.8932 447.7401)" style="fill:#3A556A;" width="27.617" height="23.62" data-original="#3A556A" class=""/><polygon style="fill:#64798A" points="225.3,236.786 225.103,213.168 252.718,212.938 " data-original="#64798A" class="" data-old_color="#64798A"/><rect x="184.798" y="213.404" transform="matrix(-1 0.0083 -0.0083 -1 399.0847 448.7646)" style="fill:#3A556A;" width="27.617" height="23.62" data-original="#3A556A" class=""/><polygon style="fill:#64798A" points="184.908,237.123 184.711,213.505 212.326,213.275 " data-original="#64798A" class="" data-old_color="#64798A"/><rect x="312.56" y="232.757" transform="matrix(-1 0.0083 -0.0083 -1 654.7649 486.4034)" style="fill:#3A556A;" width="27.617" height="23.62" data-original="#3A556A" class=""/><polygon style="fill:#64798A" points="312.646,256.476 312.45,232.858 340.064,232.627 " data-original="#64798A" class="" data-old_color="#64798A"/><rect x="277.129" y="233.028" transform="matrix(-1 0.0083 -0.0083 -1 583.9075 487.242)" style="fill:#3A556A;" width="27.617" height="23.62" data-original="#3A556A" class=""/><polygon style="fill:#64798A" points="277.22,256.771 277.023,233.153 304.637,232.923 " data-original="#64798A" class="" data-old_color="#64798A"/><rect x="312.767" y="260.542" transform="matrix(-1 0.0083 -0.0083 -1 655.4122 541.9715)" style="fill:#3A556A;" width="27.617" height="23.62" data-original="#3A556A" class=""/><polygon style="fill:#64798A" points="312.878,284.272 312.681,260.654 340.296,260.424 " data-original="#64798A" class="" data-old_color="#64798A"/><rect x="277.368" y="260.848" transform="matrix(-1 0.0083 -0.0083 -1 584.6171 542.8776)" style="fill:#3A556A;" width="27.617" height="23.62" data-original="#3A556A" class=""/><polygon style="fill:#64798A" points="277.451,284.568 277.254,260.95 304.869,260.719 " data-original="#64798A" class="" data-old_color="#64798A"/><rect x="135.538" y="206.405" transform="matrix(-1 0.0083 -0.0083 -1 300.5078 435.1771)" style="fill:#3A556A;" width="27.617" height="23.62" data-original="#3A556A" class=""/><polygon style="fill:#64798A" points="135.634,230.154 135.437,206.536 163.052,206.305 " data-original="#64798A" class="" data-old_color="#64798A"/><rect x="100.115" y="206.714" transform="matrix(-1 0.0083 -0.0083 -1 229.6649 436.0907)" style="fill:#3A556A;" width="27.617" height="23.62" data-original="#3A556A" class=""/><polygon style="fill:#64798A" points="100.208,230.449 100.011,206.831 127.625,206.601 " data-original="#64798A" class="" data-old_color="#64798A"/><rect x="135.766" y="234.224" transform="matrix(-1 0.0083 -0.0083 -1 301.1971 490.813)" style="fill:#3A556A;" width="27.617" height="23.62" data-original="#3A556A" class=""/><polygon style="fill:#64798A" points="135.866,257.95 135.669,234.332 163.284,234.102 " data-original="#64798A" class="" data-old_color="#64798A"/><rect x="100.353" y="234.499" transform="matrix(-1 0.0083 -0.0083 -1 230.3737 491.658)" style="fill:#3A556A;" width="27.617" height="23.62" data-original="#3A556A" class=""/><polygon style="fill:#64798A" points="100.439,258.245 100.242,234.628 127.857,234.397 " data-original="#64798A" class="" data-old_color="#64798A"/><rect x="135.998" y="262.009" transform="matrix(-1 0.0083 -0.0083 -1 301.8922 546.3804)" style="fill:#3A556A;" width="27.617" height="23.62" data-original="#3A556A" class=""/><polygon style="fill:#64798A" points="136.098,285.746 135.901,262.128 163.516,261.898 " data-original="#64798A" class="" data-old_color="#64798A"/><rect x="100.571" y="262.315" transform="matrix(-1 0.0083 -0.0083 -1 231.0424 547.2872)" style="fill:#3A556A;" width="27.617" height="23.62" data-original="#3A556A" class=""/><polygon style="fill:#64798A" points="100.671,286.042 100.474,262.424 128.089,262.194 " data-original="#64798A" class="" data-old_color="#64798A"/><rect x="91.131" y="295.666" transform="matrix(-1 0.0083 -0.0083 -1 440.7551 597.4887)" style="fill:#D15241;" width="256.001" height="7.994" data-original="#D15241" class=""/></g> </svg>
