<?xml version="1.0"?>
<svg xmlns="http://www.w3.org/2000/svg" height="512px" viewBox="-11 0 512 512" width="512px" class=""><g><path d="m490 267c0 135.308594-109.691406 245-245 245s-245-109.691406-245-245 109.691406-245 245-245 245 109.691406 245 245zm0 0" fill="#2e4c89" data-original="#2E4C89" class="active-path" data-old_color="#2e4c89" style="fill:#FFFFFF"/><path d="m283.390625 23.21875c-4.742187-13.523438-17.613281-23.21875-32.75-23.21875-19.167969 0-34.703125 15.535156-34.703125 34.703125 0 16.714844 11.820312 30.667969 27.558594 33.960937 8.355468-18.910156 22.367187-34.785156 39.894531-45.445312zm0 0" fill="#bf7e52" data-original="#BF7E52" class=""/><path d="m250.640625 51.40625c.953125 0 1.886719-.101562 2.796875-.253906 4.066406-5.738282 8.722656-11.03125 13.875-15.792969.007812-.21875.03125-.433594.03125-.65625 0-9.210937-7.492188-16.703125-16.703125-16.703125s-16.703125 7.492188-16.703125 16.703125 7.492188 16.703125 16.703125 16.703125zm0 0" fill="#ffdd8d" data-original="#FFDD8D"/><path d="m250.640625 51.40625c.949219 0 1.878906-.089844 2.789063-.242188.257812-.363281.519531-.722656.785156-1.085937-5.996094-2.535156-10.214844-8.46875-10.214844-15.375 0-7.457031 4.914062-13.785156 11.671875-15.925781-1.589844-.503906-3.277344-.777344-5.03125-.777344-9.210937 0-16.703125 7.492188-16.703125 16.703125s7.492188 16.703125 16.703125 16.703125zm0 0" fill="#ffc987" data-original="#FFC987"/><path d="m420.296875 0c-15.140625 0-28.007813 9.695312-32.746094 23.21875 17.519531 10.660156 31.539063 26.535156 39.890625 45.445312 15.738282-3.292968 27.558594-17.246093 27.558594-33.960937 0-19.167969-15.535156-34.703125-34.703125-34.703125zm0 0" fill="#bf7e52" data-original="#BF7E52" class=""/><path d="m417.503906 51.152344c.90625.152344 1.839844.253906 2.792969.253906 9.210937 0 16.703125-7.492188 16.703125-16.703125s-7.492188-16.703125-16.703125-16.703125-16.703125 7.492188-16.703125 16.703125c0 .222656.023438.4375.035156.65625 5.148438 4.761719 9.804688 10.054687 13.875 15.792969zm0 0" fill="#ffdd8d" data-original="#FFDD8D"/><path d="m417.503906 51.152344c.90625.152344 1.839844.253906 2.792969.253906 1.816406 0 3.5625-.304688 5.203125-.84375-6.667969-2.191406-11.5-8.46875-11.5-15.859375s4.832031-13.667969 11.5-15.863281c-1.640625-.539063-3.386719-.839844-5.203125-.839844-9.210937 0-16.703125 7.492188-16.703125 16.703125 0 .222656.023438.4375.035156.65625 5.148438 4.761719 9.804688 10.054687 13.875 15.792969zm0 0" fill="#ffc987" data-original="#FFC987"/><path d="m57.570312 279.703125-.070312-4.203125v-5c0-18.746094 15.253906-34 34-34h16.742188l.195312-.746094c2.554688-9.691406 6.730469-18.84375 12.414062-27.203125l.285157-.421875-.171875-.476562c-2.691406-7.539063-4.25-15.3125-4.738282-23.101563-18.570312-.734375-37.378906 5.976563-51.554687 20.152344-14.40625 14.40625-21.109375 33.601563-20.113281 52.464844zm0 0" fill="#37c47a" data-original="#37C47A"/><path d="m57.570312 279.703125-.070312-4.203125v-5c0-8.140625 2.878906-15.613281 7.664062-21.476562 1.046876-16.140626 7.71875-31.984376 20.054688-44.320313 8.953125-8.949219 19.753906-14.917969 31.171875-17.921875-.066406-.742188-.117187-1.484375-.164063-2.226562-18.570312-.734376-37.375 5.972656-51.554687 20.148437-14.40625 14.40625-21.105469 33.601563-20.113281 52.464844zm0 0" fill="#2bb381" data-original="#2BB381"/><path d="m194.5 169.5c25.394531 0 48.804688 10.773438 65.246094 28.464844 2.894531-4.148438 6.097656-8.089844 9.601562-11.792969l.710938-.753906-.78125-.6875c-21.796875-19.097657-34.296875-46.652344-34.296875-75.601563 0-3.019531.140625-6.003906.402343-8.953125-31.464843-13.714843-69.453124-7.730469-95.195312 18.011719-24.582031 24.582031-31.144531 60.335938-19.742188 90.914062 16.167969-24.207031 43.699219-39.601562 74.054688-39.601562zm0 0" fill="#69cdff" data-original="#69CDFF"/><path d="m269.347656 186.171875.710938-.753906-.78125-.6875c-16.824219-14.742188-28.101563-34.523438-32.375-56.097657l-35.628906-35.625c-11.382813-.039062-22.769532 2.183594-33.441407 6.640626l94.628907 94.625c2.148437-2.804688 4.4375-5.515626 6.886718-8.101563zm0 0" fill="#3eb7ff" data-original="#3EB7FF"/><path d="m268.617188 185.484375c-3.449219 3.648437-6.644532 7.578125-9.558594 11.753906 10.054687 10.574219 17.597656 23.691407 21.503906 38.515625l.195312.746094h4.742188c5.984375 0 11.609375 1.5625 16.5 4.285156v-17.785156c0-4.964844 4.035156-9 9-9h90c4.960938 0 9 4.035156 9 9v77h10.714844l6.882812-11.925781c2.351563-9.003907 3.613282-18.507813 3.613282-28.332031 0-29.109376-11.070313-55.417969-28.894532-74.257813 21.230469-18.601563 34.640625-45.914063 34.640625-76.355469 0-56.050781-45.4375-101.488281-101.488281-101.488281s-101.488281 45.4375-101.488281 101.488281c0 30.441406 13.410156 57.753906 34.636719 76.355469zm0 0" fill="#eaac68" data-original="#EAAC68" class=""/><path d="m268.617188 185.484375c-3.449219 3.648437-6.644532 7.578125-9.558594 11.753906 5.296875 5.566407 9.886718 11.847657 13.621094 18.703125 4.925781-11.4375 11.71875-21.746094 19.957031-30.457031-21.230469-18.601563-34.636719-45.914063-34.636719-76.355469 0-51.984375 39.089844-94.835937 89.476562-100.777344-3.9375-.464843-7.945312-.710937-12.007812-.710937-56.050781 0-101.488281 45.4375-101.488281 101.488281 0 30.441406 13.410156 57.753906 34.636719 76.355469zm0 0" fill="#db9652" data-original="#DB9652"/><path d="m194.5 169.5c5.90625 0 11.703125.589844 17.335938 1.707031l-61.625-61.621093c-3.503907 2.566406-6.855469 5.4375-10.023438 8.601562-3.660156 3.664062-6.898438 7.589844-9.765625 11.691406l42.320313 42.320313c7-1.761719 14.292968-2.699219 21.757812-2.699219zm0 0" fill="#fff" data-original="#FFF" class=""/><path d="m130.039062 197.136719c6.621094-6.941407 14.324219-12.78125 22.808594-17.277344l-32.007812-32.007813c-4.269532 11-6.191406 22.691407-5.765625 34.320313zm0 0" fill="#3eb7ff" data-original="#3EB7FF"/><path d="m319.5 270.5v5c0 9.617188-4.019531 18.308594-10.460938 24.5h101.960938v-77c0-5.5-4.5-10-10-10h-90c-5.5 0-10 4.5-10 10v17.253906c10.972656 5.644532 18.5 17.082032 18.5 30.246094zm0 0" fill="#60d882" data-original="#60D882" class=""/><path d="m319.5 270.5v5c0 5.382812-1.261719 10.476562-3.5 15.003906v9.496094h80v-67c0-2.761719-2.238281-5-5-5h-70c-2.761719 0-5 2.238281-5 5v22.496094c2.238281 4.527344 3.5 9.621094 3.5 15.003906zm0 0" fill="#37c47a" data-original="#37C47A"/><path d="m319.5 270.5v5c0 5.382812-1.261719 10.476562-3.5 15.003906v9.496094h10v-67c0-2.761719 2.238281-5 5-5h-10c-2.761719 0-5 2.238281-5 5v22.496094c2.238281 4.527344 3.5 9.621094 3.5 15.003906zm0 0" fill="#2bb381" data-original="#2BB381"/><path d="m371.519531 294.878906c-.480469 0-.957031-.113281-1.398437-.34375l-14.121094-7.425781-14.121094 7.425781c-.4375.226563-.917968.34375-1.398437.34375-.621094 0-1.238281-.195312-1.761719-.574218-.925781-.667969-1.386719-1.808594-1.195312-2.933594l2.695312-15.726563-11.421875-11.132812c-.816406-.796875-1.113281-1.988281-.761719-3.074219.355469-1.085938 1.292969-1.878906 2.425782-2.042969l15.785156-2.296875 7.0625-14.304687c.503906-1.023438 1.550781-1.671875 2.691406-1.671875s2.183594.648437 2.6875 1.671875l7.0625 14.304687 15.789062 2.296875c1.128907.164063 2.070313.957031 2.421876 2.042969.351562 1.085938.058593 2.277344-.761719 3.074219l-11.421875 11.132812 2.695312 15.726563c.191406 1.125-.269531 2.265625-1.191406 2.933594-.523438.378906-1.140625.574218-1.761719.574218zm0 0" fill="#fff" data-original="#FFF" class=""/><path d="m348.828125 290.425781c-.925781-.667969-1.386719-1.808593-1.195313-2.933593l2.695313-15.722657-11.421875-11.136719c-.636719-.617187-.949219-1.476562-.894531-2.335937l-7.550781 1.097656c-1.132813.164063-2.070313.957031-2.421876 2.042969-.355468 1.085938-.058593 2.277344.761719 3.074219l11.421875 11.132812-2.695312 15.726563c-.191406 1.125.269531 2.265625 1.191406 2.933594.523438.378906 1.140625.574218 1.765625.574218.476563 0 .957031-.113281 1.394531-.34375l7.347656-3.863281c-.136718-.070313-.273437-.152344-.398437-.246094zm0 0" fill="#eef6ff" data-original="#EEF6FF"/><path d="m352.851562 92.222656c.132813.589844.222657 1.191406.222657 1.808594 0 6.601562-7.894531 11.96875-17.605469 11.96875-9.707031 0-17.605469-5.367188-17.605469-11.96875 0-.617188.089844-1.21875.222657-1.808594-16.914063 6.871094-28.847657 23.457032-28.847657 42.84375 0 25.53125 20.695313 46.230469 46.230469 46.230469s46.234375-20.699219 46.234375-46.230469c0-19.386718-11.933594-35.972656-28.851563-42.84375zm0 0" fill="#fff" data-original="#FFF" class=""/><path d="m310 135.0625c0-12.632812 5.074219-24.070312 13.285156-32.410156-3.335937-2.179688-5.421875-5.234375-5.421875-8.621094 0-.617188.089844-1.21875.222657-1.808594-16.917969 6.871094-28.851563 23.457032-28.851563 42.839844 0 25.535156 20.699219 46.234375 46.234375 46.234375 3.570312 0 7.042969-.417969 10.382812-1.183594-20.535156-4.714843-35.851562-23.085937-35.851562-45.050781zm0 0" fill="#d9eafc" data-original="#D9EAFC"/><path d="m354.074219 94.03125c0-7.160156-8.328125-12.96875-18.605469-12.96875s-18.605469 5.808594-18.605469 12.96875c0 7.164062 8.328125 12.96875 18.605469 12.96875s18.605469-5.804688 18.605469-12.96875zm0 0" fill="#994334" data-original="#994334" class=""/><path d="m330.785156 94.03125c0-5.441406 4.820313-10.097656 11.648438-12.019531-2.152344-.605469-4.5-.949219-6.964844-.949219-10.273438 0-18.605469 5.808594-18.605469 12.96875 0 7.164062 8.328125 12.96875 18.605469 12.96875 2.464844 0 4.808594-.34375 6.964844-.945312-6.828125-1.925782-11.648438-6.578126-11.648438-12.023438zm0 0" fill="#7c2e24" data-original="#7C2E24"/><path d="m301.074219 82.628906c0 7.160156-5.804688 12.96875-12.96875 12.96875-7.160157 0-12.964844-5.808594-12.964844-12.96875 0-7.164062 5.804687-12.96875 12.964844-12.96875 7.164062 0 12.96875 5.804688 12.96875 12.96875zm0 0" fill="#994334" data-original="#994334" class=""/><path d="m395.800781 82.628906c0 7.160156-5.808593 12.96875-12.96875 12.96875-7.164062 0-12.96875-5.808594-12.96875-12.96875 0-7.164062 5.804688-12.96875 12.96875-12.96875 7.160157 0 12.96875 5.804688 12.96875 12.96875zm0 0" fill="#994334" data-original="#994334" class=""/><path d="m69.285156 300h241.199219c6.191406-6.3125 10.015625-14.960938 10.015625-24.5v-5c0-19.328125-15.671875-35-35-35h-3.972656c-10.164063-38.5625-45.273438-67-87.027344-67s-76.863281 28.4375-87.027344 67h-15.972656c-19.328125 0-35 15.671875-35 35v5c0 .851562.039062 1.691406.101562 2.527344zm0 0" fill="#fe3745" data-original="#FE3745" class=""/><path d="m194.5 168.5c-41.753906 0-76.863281 28.4375-87.027344 67h-15.972656c-19.328125 0-35 15.671875-35 35v3h11.3125c3.433594-15.726562 17.433594-27.5 34.1875-27.5h15.972656c10.164063-38.5625 45.273438-67 87.027344-67 22.167969 0 42.460938 8.015625 58.144531 21.304688-16.507812-19.453126-41.132812-31.804688-68.644531-31.804688zm0 0" fill="#ea2a3d" data-original="#EA2A3D"/><path d="m162.558594 300c-3.070313-11.238281-13.347656-19.5-25.558594-19.5s-22.488281 8.261719-25.558594 19.5zm0 0" fill="#ffaf10" data-original="#FFAF10"/><path d="m146.105469 300c-2.105469-2.730469-5.398438-4.5-9.105469-4.5s-6.996094 1.769531-9.105469 4.5zm0 0" fill="#ffdd8d" data-original="#FFDD8D"/><path d="m274.558594 300c-3.070313-11.238281-13.347656-19.5-25.558594-19.5s-22.488281 8.261719-25.558594 19.5zm0 0" fill="#ffaf10" data-original="#FFAF10"/><path d="m258.101562 300c-2.105468-2.730469-5.394531-4.5-9.101562-4.5s-6.996094 1.769531-9.105469 4.5zm0 0" fill="#ffdd8d" data-original="#FFDD8D"/><path d="m134.503906 238.5c-1.675781 0-3.238281-.839844-4.164062-2.230469-.925782-1.394531-1.09375-3.160156-.449219-4.703125 10.804687-25.757812 36.765625-43.066406 64.609375-43.066406 3.207031 0 6.480469.238281 9.722656.714844 2.457032.355468 4.277344 2.464844 4.277344 4.945312v39.339844c0 2.761719-2.238281 5-5 5zm0 0" fill="#d9eafc" data-original="#D9EAFC"/><path d="m150.839844 236.269531c-.925782-1.394531-1.09375-3.160156-.449219-4.703125 9.445313-22.519531 30.472656-38.574218 54.21875-42.261718-.132813-.027344-.253906-.070313-.386719-.089844-3.242187-.476563-6.515625-.714844-9.722656-.714844-27.84375 0-53.808594 17.308594-64.609375 43.066406-.644531 1.542969-.476563 3.308594.449219 4.703125.925781 1.390625 2.488281 2.230469 4.164062 2.230469h20.5c-1.675781 0-3.238281-.839844-4.164062-2.230469zm0 0" fill="#c3ddf4" data-original="#C3DDF4"/><path d="m227.5 238.5c-2.761719 0-5-2.238281-5-5v-30.789062c0-1.800782.96875-3.460938 2.53125-4.351563.765625-.433594 1.617188-.648437 2.46875-.648437.886719 0 1.773438.234374 2.5625.703124 13.023438 7.765626 23.339844 19.539063 29.046875 33.152344.648437 1.542969.480469 3.308594-.449219 4.703125-.925781 1.390625-2.488281 2.230469-4.164062 2.230469zm0 0" fill="#d9eafc" data-original="#D9EAFC"/><path d="m233 233.5v-30.789062c0-.742188.171875-1.457032.476562-2.109376-1.117187-.757812-2.253906-1.492187-3.414062-2.1875-.789062-.46875-1.675781-.703124-2.5625-.703124-.851562 0-1.703125.214843-2.46875.648437-1.566406.890625-2.53125 2.550781-2.53125 4.351563v30.789062c0 2.761719 2.238281 5 5 5h10.5c-2.761719 0-5-2.238281-5-5zm0 0" fill="#c3ddf4" data-original="#C3DDF4"/><path d="m208.5 259c0 4.144531-3.359375 7.5-7.5 7.5h-16.152344c-4.144531 0-7.5-3.355469-7.5-7.5s3.355469-7.5 7.5-7.5h16.152344c4.140625 0 7.5 3.355469 7.5 7.5zm0 0" fill="#b7092b" data-original="#B7092B"/><path d="m304.5 264.5v17c0 2.761719 2.238281 5 5 5h9.226562c1.144532-3.460938 1.773438-7.15625 1.773438-11v-5c0-3.84375-.628906-7.539062-1.773438-11h-9.226562c-2.761719 0-5 2.238281-5 5zm0 0" fill="#ff9518" data-original="#FF9518"/><path d="m65.535156 293.5h11.964844c2.761719 0 5-2.238281 5-5v-10c0-2.761719-2.238281-5-5-5h-21v2c0 .84375.03125 1.679688.089844 2.511719zm0 0" fill="#fff" data-original="#FFF" class=""/><path d="m435 304c0-.21875-.035156-.425781-.066406-.632812l49.929687-86.476563c-.019531-.082031-.035156-.160156-.054687-.242187-1.457032-6.972657-3.214844-13.832032-5.25-20.574219l-59.421875 102.925781h-350.273438l-59.421875-102.925781c-2.058594 6.820312-3.839844 13.761719-5.304687 20.816406l49.925781 86.476563c-.027344.207031-.0625.414062-.0625.632812v117.667969c44.925781 55.121093 113.347656 90.332031 190 90.332031s145.074219-35.210938 190-90.332031zm0 0" fill="#bf7e52" data-original="#BF7E52" class=""/><path d="m75.863281 299h-6l-59.421875-102.925781c-2.058594 6.820312-3.839844 13.761719-5.304687 20.816406l49.925781 86.476563c-.027344.207031-.0625.414062-.0625.632812v117.667969c6.476562 7.945312 13.453125 15.464843 20.863281 22.535156zm0 0" fill="#a8683d" data-original="#A8683D"/><path d="m308.839844 407.839844c0 35.257812-28.582032 63.839844-63.839844 63.839844s-63.839844-28.582032-63.839844-63.839844c0-35.257813 28.582032-63.835938 63.839844-63.835938s63.839844 28.578125 63.839844 63.835938zm0 0" fill="#ffaf10" data-original="#FFAF10"/><path d="m195 407.839844c0-32.917969 24.917969-60.011719 56.921875-63.460938-2.273437-.242187-4.582031-.378906-6.921875-.378906-35.257812 0-63.839844 28.582031-63.839844 63.839844 0 35.257812 28.582032 63.839844 63.839844 63.839844 2.339844 0 4.648438-.132813 6.921875-.378907-32.003906-3.453125-56.921875-30.542969-56.921875-63.460937zm0 0" fill="#ef9614" data-original="#EF9614"/><g fill="#db722c"><path d="m227.402344 395.5625c0 5.425781-4.394532 9.824219-9.820313 9.824219-5.421875 0-9.820312-4.398438-9.820312-9.824219 0-5.421875 4.398437-9.820312 9.820312-9.820312 5.425781 0 9.820313 4.398437 9.820313 9.820312zm0 0" data-original="#DB722C"/><path d="m282.242188 395.5625c0 5.425781-4.398438 9.820312-9.828126 9.820312-5.421874 0-9.816406-4.394531-9.816406-9.820312 0-5.421875 4.394532-9.820312 9.816406-9.820312 5.429688 0 9.828126 4.398437 9.828126 9.820312zm0 0" data-original="#DB722C"/><path d="m245 452.4375c-15.152344 0-29.222656-7.773438-36.714844-20.28125-2.128906-3.554688-.972656-8.160156 2.578125-10.289062 3.554688-2.128907 8.160157-.972657 10.289063 2.578124 4.800781 8.015626 13.9375 12.992188 23.847656 12.992188s19.050781-4.976562 23.851562-12.992188c2.128907-3.554687 6.738282-4.707031 10.289063-2.578124 3.550781 2.128906 4.707031 6.734374 2.578125 10.289062-7.496094 12.507812-21.566406 20.28125-36.71875 20.28125zm0 0" data-original="#DB722C"/></g><path d="m413 336c0 2.75-2.25 5-5 5h-37c-2.75 0-5-2.25-5-5v-12c0-2.75 2.25-5 5-5h37c2.75 0 5 2.25 5 5zm0 0" fill="#ffca51" data-original="#FFCA51" class="" style="fill:#FFCA51"/><path d="m386 336v-12c0-2.75 2.25-5 5-5h-20c-2.75 0-5 2.25-5 5v12c0 2.75 2.25 5 5 5h20c-2.75 0-5-2.25-5-5zm0 0" fill="#ffaf10" data-original="#FFAF10"/></g> </svg>
